<!--?xml version="1.0" encoding="utf-8"?-->
<!-- Generator: Adobe Illustrator 22.1.0, SVG Export Plug-In . SVG Version: 6.00 Build 0)  -->
<svg version="1.1" id="_x34_" xmlns="http://www.w3.org/2000/svg" xmlns:xlink="http://www.w3.org/1999/xlink" x="0px" y="0px" viewBox="0 0 720 720" style="enable-background:new 0 0 720 720;" xml:space="preserve">
<style type="text/css">
	.st0{fill:#231815;}
</style>
<g>
	<path class="st0" d="M46.804,631.132L5.169,586.339c-1.183-1.274-3.1-1.274-4.28,0c-1.185,1.272-1.185,3.331,0,4.606l41.633,44.795
		c1.184,1.273,3.1,1.273,4.282,0C47.985,634.467,47.985,632.405,46.804,631.132" style="opacity: 1;"></path>
	<path class="st0" d="M17.46,650.057l-12.29-13.223c-1.183-1.272-3.1-1.272-4.28,0c-1.185,1.274-1.185,3.335,0,4.607l12.289,13.222
		c1.184,1.272,3.101,1.272,4.282,0C18.642,653.394,18.642,651.331,17.46,650.057" style="opacity: 1;"></path>
	<path class="st0" d="M46.804,579.563l-13.701-14.741c-1.184-1.273-3.101-1.273-4.282,0c-1.183,1.272-1.183,3.335,0,4.61
		l13.701,14.737c1.184,1.274,3.1,1.274,4.282,0C47.985,582.898,47.985,580.833,46.804,579.563" style="opacity: 1;"></path>
	<path class="st0" d="M46.804,529.2L5.169,484.405c-1.183-1.274-3.1-1.274-4.28,0c-1.185,1.274-1.185,3.335,0,4.606l41.633,44.797
		c1.184,1.27,3.1,1.27,4.282,0C47.985,532.533,47.985,530.468,46.804,529.2" style="opacity: 1;"></path>
	<path class="st0" d="M17.46,548.124l-12.29-13.225c-1.183-1.271-3.1-1.271-4.28,0c-1.185,1.274-1.185,3.335,0,4.609l12.289,13.222
		c1.184,1.27,3.101,1.27,4.282,0C18.642,551.458,18.642,549.398,17.46,548.124" style="opacity: 1;"></path>
	<path class="st0" d="M46.804,477.628l-13.701-14.74c-1.184-1.272-3.101-1.272-4.282,0c-1.183,1.273-1.183,3.334,0,4.604
		l13.701,14.742c1.184,1.274,3.1,1.274,4.282,0C47.985,480.96,47.985,478.903,46.804,477.628" style="opacity: 1;"></path>
	<path class="st0" d="M46.804,427.263L5.169,382.474c-1.183-1.276-3.1-1.276-4.28,0c-1.185,1.268-1.185,3.332,0,4.604l41.633,44.795
		c1.184,1.27,3.1,1.27,4.282,0C47.985,430.599,47.985,428.537,46.804,427.263" style="opacity: 1;"></path>
	<path class="st0" d="M17.46,446.19l-12.29-13.223c-1.183-1.273-3.1-1.273-4.28,0c-1.185,1.272-1.185,3.334,0,4.606l12.289,13.224
		c1.184,1.272,3.101,1.272,4.282,0C18.642,449.525,18.642,447.46,17.46,446.19" style="opacity: 1;"></path>
	<path class="st0" d="M46.804,375.694l-13.701-14.741c-1.184-1.271-3.101-1.271-4.282,0c-1.183,1.274-1.183,3.335,0,4.607
		l13.701,14.743c1.184,1.271,3.1,1.271,4.282,0C47.985,379.03,47.985,376.968,46.804,375.694" style="opacity: 1;"></path>
	<path class="st0" d="M46.804,325.333L5.169,280.538c-1.183-1.272-3.1-1.272-4.28,0c-1.185,1.272-1.185,3.334,0,4.604l41.633,44.797
		c1.184,1.272,3.1,1.272,4.282,0C47.985,328.664,47.985,326.603,46.804,325.333" style="opacity: 1;"></path>
	<path class="st0" d="M17.46,344.255l-12.29-13.222c-1.183-1.274-3.1-1.274-4.28,0c-1.185,1.271-1.185,3.334,0,4.606l12.289,13.223
		c1.184,1.273,3.101,1.273,4.282,0C18.642,347.59,18.642,345.529,17.46,344.255" style="opacity: 1;"></path>
	<path class="st0" d="M46.804,273.763l-13.701-14.741c-1.184-1.274-3.101-1.274-4.282,0c-1.183,1.271-1.183,3.334,0,4.606
		l13.701,14.741c1.184,1.27,3.1,1.27,4.282,0C47.985,277.095,47.985,275.034,46.804,273.763" style="opacity: 1;"></path>
	<path class="st0" d="M46.804,223.398L5.169,178.603c-1.183-1.272-3.1-1.272-4.28,0c-1.185,1.273-1.185,3.334,0,4.608l41.633,44.795
		c1.184,1.27,3.1,1.27,4.282,0C47.985,226.734,47.985,224.668,46.804,223.398" style="opacity: 1;"></path>
	<path class="st0" d="M17.46,242.321l-12.29-13.223c-1.183-1.268-3.1-1.268-4.28,0c-1.185,1.272-1.185,3.335,0,4.607l12.289,13.226
		c1.184,1.27,3.101,1.27,4.282,0C18.642,245.656,18.642,243.594,17.46,242.321" style="opacity: 1;"></path>
	<path class="st0" d="M46.804,171.829l-13.701-14.741c-1.184-1.274-3.101-1.274-4.282,0c-1.183,1.27-1.183,3.335,0,4.606
		l13.701,14.74c1.184,1.276,3.1,1.276,4.282,0C47.985,175.16,47.985,173.101,46.804,171.829" style="opacity: 1;"></path>
	<path class="st0" d="M46.804,121.464L5.169,76.671c-1.183-1.274-3.1-1.274-4.28,0c-1.185,1.27-1.185,3.332,0,4.606l41.633,44.795
		c1.184,1.272,3.1,1.272,4.282,0C47.985,124.799,47.985,122.736,46.804,121.464" style="opacity: 1;"></path>
	<path class="st0" d="M17.46,140.39l-12.29-13.226c-1.183-1.273-3.1-1.273-4.28,0c-1.185,1.27-1.185,3.335,0,4.606l12.289,13.225
		c1.184,1.27,3.101,1.27,4.282,0C18.642,143.726,18.642,141.66,17.46,140.39" style="opacity: 1;"></path>
	<path class="st0" d="M46.804,69.894L33.103,55.153c-1.184-1.272-3.101-1.272-4.282,0c-1.183,1.273-1.183,3.336,0,4.608L42.522,74.5
		c1.184,1.273,3.1,1.273,4.282,0C47.985,73.228,47.985,71.164,46.804,69.894" style="opacity: 1;"></path>
	<path class="st0" d="M88.867,46.802l44.794-41.636c1.273-1.181,1.273-3.098,0-4.279c-1.272-1.183-3.335-1.183-4.608,0L84.261,42.52
		c-1.273,1.184-1.273,3.101,0,4.282C85.534,47.987,87.595,47.987,88.867,46.802" style="opacity: 1;"></path>
	<path class="st0" d="M69.943,17.46L83.166,5.166c1.272-1.181,1.272-3.098,0-4.279c-1.27-1.183-3.334-1.183-4.604,0l-13.226,12.29
		c-1.274,1.183-1.274,3.1,0,4.283C66.609,18.645,68.673,18.645,69.943,17.46" style="opacity: 1;"></path>
	<path class="st0" d="M140.438,46.802l14.741-13.7c1.271-1.181,1.271-3.098,0-4.279c-1.272-1.184-3.335-1.184-4.608,0L135.832,42.52
		c-1.273,1.184-1.273,3.101,0,4.282C137.102,47.987,139.163,47.987,140.438,46.802" style="opacity: 1;"></path>
	<path class="st0" d="M190.801,46.802l44.795-41.636c1.27-1.181,1.27-3.098,0-4.279c-1.273-1.183-3.335-1.183-4.606,0L186.193,42.52
		c-1.27,1.184-1.27,3.101,0,4.282C187.468,47.987,189.529,47.987,190.801,46.802" style="opacity: 1;"></path>
	<path class="st0" d="M171.877,17.46L185.1,5.166c1.273-1.181,1.273-3.098,0-4.279c-1.272-1.183-3.334-1.183-4.606,0l-13.224,12.29
		c-1.272,1.183-1.272,3.1,0,4.283C168.545,18.645,170.605,18.645,171.877,17.46" style="opacity: 1;"></path>
	<path class="st0" d="M242.372,46.802l14.74-13.7c1.272-1.181,1.272-3.098,0-4.279c-1.273-1.184-3.334-1.184-4.608,0l-14.74,13.697
		c-1.273,1.184-1.273,3.101,0,4.282C239.037,47.987,241.1,47.987,242.372,46.802" style="opacity: 1;"></path>
	<path class="st0" d="M292.733,46.802L337.53,5.166c1.271-1.181,1.271-3.098,0-4.279c-1.272-1.183-3.335-1.183-4.606,0L288.13,42.52
		c-1.274,1.184-1.274,3.101,0,4.282C289.402,47.987,291.463,47.987,292.733,46.802" style="opacity: 1;"></path>
	<path class="st0" d="M273.809,17.46l13.223-12.295c1.274-1.181,1.274-3.098,0-4.279c-1.271-1.183-3.334-1.183-4.604,0
		l-13.224,12.29c-1.274,1.183-1.274,3.1,0,4.283C270.476,18.645,272.537,18.645,273.809,17.46" style="opacity: 1;"></path>
	<path class="st0" d="M344.307,46.802l14.737-13.7c1.272-1.181,1.272-3.098,0-4.279c-1.27-1.184-3.332-1.184-4.604,0L339.699,42.52
		c-1.273,1.184-1.273,3.101,0,4.282C340.969,47.987,343.033,47.987,344.307,46.802" style="opacity: 1;"></path>
	<path class="st0" d="M394.668,46.802l44.795-41.636c1.273-1.181,1.273-3.098,0-4.279c-1.273-1.183-3.334-1.183-4.608,0
		L390.062,42.52c-1.27,1.184-1.27,3.101,0,4.282C391.334,47.987,393.395,47.987,394.668,46.802" style="opacity: 1;"></path>
	<path class="st0" d="M375.742,17.46l13.225-12.295c1.274-1.181,1.274-3.098,0-4.279c-1.272-1.183-3.335-1.183-4.606,0
		l-13.223,12.29c-1.273,1.183-1.273,3.1,0,4.283C372.41,18.645,374.473,18.645,375.742,17.46" style="opacity: 1;"></path>
	<path class="st0" d="M446.239,46.802l14.74-13.7c1.272-1.181,1.272-3.098,0-4.279c-1.273-1.184-3.332-1.184-4.606,0L441.631,42.52
		c-1.27,1.184-1.27,3.101,0,4.282C442.904,47.987,444.967,47.987,446.239,46.802" style="opacity: 1;"></path>
	<path class="st0" d="M496.603,46.802l44.792-41.636c1.274-1.181,1.274-3.098,0-4.279c-1.27-1.183-3.334-1.183-4.606,0
		L491.996,42.52c-1.272,1.184-1.272,3.101,0,4.282C493.267,47.987,495.328,47.987,496.603,46.802" style="opacity: 1;"></path>
	<path class="st0" d="M477.678,17.46L490.9,5.166c1.272-1.181,1.272-3.098,0-4.279c-1.273-1.183-3.333-1.183-4.604,0l-13.226,12.29
		c-1.272,1.183-1.272,3.1,0,4.283C474.344,18.645,476.405,18.645,477.678,17.46" style="opacity: 1;"></path>
	<path class="st0" d="M548.171,46.802l14.741-13.7c1.27-1.181,1.27-3.098,0-4.279c-1.27-1.184-3.334-1.184-4.606,0L543.566,42.52
		c-1.271,1.184-1.271,3.101,0,4.282C544.836,47.987,546.901,47.987,548.171,46.802" style="opacity: 1;"></path>
	<path class="st0" d="M598.536,46.802l44.793-41.636c1.272-1.181,1.272-3.098,0-4.279c-1.273-1.183-3.332-1.183-4.608,0
		L593.928,42.52c-1.272,1.184-1.272,3.101,0,4.282C595.201,47.987,597.262,47.987,598.536,46.802" style="opacity: 1;"></path>
	<path class="st0" d="M579.61,17.46l13.222-12.295c1.274-1.181,1.274-3.098,0-4.279c-1.268-1.183-3.331-1.183-4.604,0l-13.223,12.29
		c-1.274,1.183-1.274,3.1,0,4.283C576.276,18.645,578.34,18.645,579.61,17.46" style="opacity: 1;"></path>
	<path class="st0" d="M650.106,46.802l14.741-13.7c1.273-1.181,1.273-3.098,0-4.279c-1.272-1.184-3.335-1.184-4.606,0L645.5,42.52
		c-1.272,1.184-1.272,3.101,0,4.282C646.77,47.987,648.836,47.987,650.106,46.802" style="opacity: 1;"></path>
	<path class="st0" d="M673.198,88.867l41.632,44.793c1.181,1.274,3.102,1.274,4.283,0c1.183-1.271,1.183-3.334,0-4.606
		l-41.635-44.793c-1.182-1.274-3.1-1.274-4.28,0C672.013,85.531,672.013,87.595,673.198,88.867" style="opacity: 1;"></path>
	<path class="st0" d="M702.54,69.945l12.29,13.222c1.181,1.273,3.102,1.273,4.283,0c1.183-1.272,1.183-3.331,0-4.606l-12.29-13.223
		c-1.183-1.273-3.1-1.273-4.283,0C701.36,66.609,701.36,68.671,702.54,69.945" style="opacity: 1;"></path>
	<path class="st0" d="M673.198,140.439l13.7,14.739c1.181,1.273,3.098,1.273,4.283,0c1.178-1.272,1.178-3.335,0-4.606
		l-13.703-14.741c-1.182-1.27-3.1-1.27-4.28,0C672.013,137.103,672.013,139.166,673.198,140.439" style="opacity: 1;"></path>
	<path class="st0" d="M673.198,190.8l41.632,44.795c1.181,1.274,3.102,1.274,4.283,0c1.183-1.27,1.183-3.335,0-4.606l-41.635-44.793
		c-1.182-1.274-3.1-1.274-4.28,0C672.013,187.468,672.013,189.528,673.198,190.8" style="opacity: 1;"></path>
	<path class="st0" d="M702.54,171.876l12.29,13.225c1.181,1.274,3.102,1.274,4.283,0c1.183-1.274,1.183-3.334,0-4.606l-12.29-13.223
		c-1.183-1.272-3.1-1.272-4.283,0C701.36,168.542,701.36,170.605,702.54,171.876" style="opacity: 1;"></path>
	<path class="st0" d="M673.198,242.373l13.7,14.74c1.181,1.27,3.098,1.27,4.283,0c1.178-1.27,1.178-3.334,0-4.606l-13.703-14.741
		c-1.182-1.27-3.1-1.27-4.28,0C672.013,239.036,672.013,241.101,673.198,242.373" style="opacity: 1;"></path>
	<path class="st0" d="M673.198,292.736l41.632,44.793c1.181,1.272,3.102,1.272,4.283,0c1.183-1.273,1.183-3.336,0-4.608
		l-41.635-44.791c-1.182-1.274-3.1-1.274-4.28,0C672.013,289.401,672.013,291.462,673.198,292.736" style="opacity: 1;"></path>
	<path class="st0" d="M702.54,273.81l12.29,13.222c1.181,1.274,3.102,1.274,4.283,0c1.183-1.27,1.183-3.332,0-4.602l-12.29-13.225
		c-1.183-1.274-3.1-1.274-4.283,0C701.36,270.476,701.36,272.54,702.54,273.81" style="opacity: 1;"></path>
	<path class="st0" d="M673.198,344.306l13.7,14.741c1.181,1.27,3.098,1.27,4.283,0c1.178-1.273,1.178-3.334,0-4.61L677.478,339.7
		c-1.182-1.272-3.1-1.272-4.28,0C672.013,340.97,672.013,343.034,673.198,344.306" style="opacity: 1;"></path>
	<path class="st0" d="M673.198,394.671l41.632,44.793c1.181,1.27,3.102,1.27,4.283,0c1.183-1.273,1.183-3.334,0-4.606
		l-41.635-44.795c-1.182-1.272-3.1-1.272-4.28,0C672.013,391.335,672.013,393.397,673.198,394.671" style="opacity: 1;"></path>
	<path class="st0" d="M702.54,375.745l12.29,13.223c1.181,1.272,3.102,1.272,4.283,0c1.183-1.272,1.183-3.334,0-4.606l-12.29-13.223
		c-1.183-1.274-3.1-1.274-4.283,0C701.36,372.413,701.36,374.473,702.54,375.745" style="opacity: 1;"></path>
	<path class="st0" d="M673.198,446.241l13.7,14.739c1.181,1.273,3.098,1.273,4.283,0c1.178-1.272,1.178-3.334,0-4.608
		l-13.703-14.739c-1.182-1.271-3.1-1.271-4.28,0C672.013,442.905,672.013,444.966,673.198,446.241" style="opacity: 1;"></path>
	<path class="st0" d="M673.198,496.602l41.632,44.795c1.181,1.272,3.102,1.272,4.283,0c1.183-1.272,1.183-3.334,0-4.606
		l-41.635-44.794c-1.182-1.273-3.1-1.273-4.28,0C672.013,493.268,672.013,495.33,673.198,496.602" style="opacity: 1;"></path>
	<path class="st0" d="M702.54,477.679l12.29,13.222c1.181,1.274,3.102,1.274,4.283,0c1.183-1.27,1.183-3.334,0-4.606l-12.29-13.222
		c-1.183-1.274-3.1-1.274-4.283,0C701.36,474.346,701.36,476.404,702.54,477.679" style="opacity: 1;"></path>
	<path class="st0" d="M673.198,548.175l13.7,14.738c1.181,1.274,3.098,1.274,4.283,0c1.178-1.27,1.178-3.332,0-4.606l-13.703-14.739
		c-1.182-1.273-3.1-1.273-4.28,0C672.013,544.839,672.013,546.9,673.198,548.175" style="opacity: 1;"></path>
	<path class="st0" d="M673.198,598.536l41.632,44.797c1.181,1.27,3.102,1.27,4.283,0c1.183-1.274,1.183-3.336,0-4.61l-41.635-44.792
		c-1.182-1.271-3.1-1.271-4.28,0C672.013,595.2,672.013,597.264,673.198,598.536" style="opacity: 1;"></path>
	<path class="st0" d="M702.54,579.61l12.29,13.225c1.181,1.272,3.102,1.272,4.283,0c1.183-1.272,1.183-3.332,0-4.606l-12.29-13.224
		c-1.183-1.272-3.1-1.272-4.283,0C701.36,576.278,701.36,578.339,702.54,579.61" style="opacity: 1;"></path>
	<path class="st0" d="M673.198,650.107l13.7,14.74c1.181,1.274,3.098,1.274,4.283,0c1.178-1.272,1.178-3.335,0-4.606L677.478,645.5
		c-1.182-1.27-3.1-1.27-4.28,0C672.013,646.772,672.013,648.835,673.198,650.107" style="opacity: 1;"></path>
	<path class="st0" d="M631.133,673.197l-44.795,41.635c-1.273,1.183-1.273,3.1,0,4.283c1.272,1.18,3.333,1.18,4.606,0l44.794-41.635
		c1.273-1.183,1.273-3.1,0-4.282C634.464,672.015,632.403,672.015,631.133,673.197" style="opacity: 1;"></path>
	<path class="st0" d="M650.055,702.54l-13.221,12.292c-1.275,1.183-1.275,3.1,0,4.283c1.272,1.18,3.333,1.18,4.605,0l13.222-12.293
		c1.274-1.181,1.274-3.098,0-4.282C653.391,701.359,651.329,701.359,650.055,702.54" style="opacity: 1;"></path>
	<path class="st0" d="M579.562,673.197l-14.74,13.703c-1.274,1.178-1.274,3.098,0,4.28c1.272,1.181,3.332,1.181,4.606,0
		l14.741-13.701c1.272-1.183,1.272-3.1,0-4.282C582.895,672.015,580.833,672.015,579.562,673.197" style="opacity: 1;"></path>
	<path class="st0" d="M529.199,673.197l-44.793,41.635c-1.274,1.183-1.274,3.1,0,4.283c1.27,1.18,3.334,1.18,4.606,0l44.793-41.635
		c1.272-1.183,1.272-3.1,0-4.282C532.532,672.015,530.469,672.015,529.199,673.197" style="opacity: 1;"></path>
	<path class="st0" d="M548.123,702.54l-13.225,12.292c-1.273,1.183-1.273,3.1,0,4.283c1.272,1.18,3.337,1.18,4.608,0l13.225-12.293
		c1.27-1.181,1.27-3.098,0-4.282C551.456,701.359,549.395,701.359,548.123,702.54" style="opacity: 1;"></path>
	<path class="st0" d="M477.629,673.197L462.888,686.9c-1.274,1.178-1.274,3.098,0,4.28c1.274,1.181,3.335,1.181,4.605,0
		l14.741-13.701c1.271-1.183,1.271-3.1,0-4.282C480.965,672.015,478.9,672.015,477.629,673.197" style="opacity: 1;"></path>
	<path class="st0" d="M427.264,673.197l-44.793,41.635c-1.274,1.183-1.274,3.1,0,4.283c1.272,1.18,3.332,1.18,4.606,0l44.795-41.635
		c1.272-1.183,1.272-3.1,0-4.282C430.6,672.015,428.537,672.015,427.264,673.197" style="opacity: 1;"></path>
	<path class="st0" d="M446.19,702.54l-13.225,12.292c-1.272,1.183-1.272,3.1,0,4.283c1.27,1.18,3.336,1.18,4.608,0l13.223-12.293
		c1.271-1.181,1.271-3.098,0-4.282C449.524,701.359,447.461,701.359,446.19,702.54" style="opacity: 1;"></path>
	<path class="st0" d="M375.695,673.197L360.953,686.9c-1.272,1.178-1.272,3.098,0,4.28c1.273,1.181,3.336,1.181,4.606,0
		l14.741-13.701c1.272-1.183,1.272-3.1,0-4.282C379.028,672.015,376.965,672.015,375.695,673.197" style="opacity: 1;"></path>
	<path class="st0" d="M325.33,673.197l-44.793,41.635c-1.272,1.183-1.272,3.1,0,4.283c1.274,1.18,3.334,1.18,4.606,0l44.797-41.635
		c1.271-1.183,1.271-3.1,0-4.282C328.667,672.015,326.602,672.015,325.33,673.197" style="opacity: 1;"></path>
	<path class="st0" d="M344.256,702.54l-13.225,12.292c-1.27,1.183-1.27,3.1,0,4.283c1.274,1.18,3.335,1.18,4.609,0l13.222-12.293
		c1.27-1.181,1.27-3.098,0-4.282C347.592,701.359,345.528,701.359,344.256,702.54" style="opacity: 1;"></path>
	<path class="st0" d="M273.763,673.197L259.021,686.9c-1.273,1.178-1.273,3.098,0,4.28c1.27,1.181,3.334,1.181,4.606,0l14.74-13.701
		c1.274-1.183,1.274-3.1,0-4.282C277.094,672.015,275.033,672.015,273.763,673.197" style="opacity: 1;"></path>
	<path class="st0" d="M223.397,673.197l-44.793,41.635c-1.272,1.183-1.272,3.1,0,4.283c1.27,1.18,3.334,1.18,4.604,0l44.797-41.635
		c1.273-1.183,1.273-3.1,0-4.282C226.733,672.015,224.669,672.015,223.397,673.197" style="opacity: 1;"></path>
	<path class="st0" d="M242.322,702.54l-13.224,12.292c-1.272,1.183-1.272,3.1,0,4.283c1.273,1.18,3.334,1.18,4.606,0l13.223-12.293
		c1.273-1.181,1.273-3.098,0-4.282C245.657,701.359,243.594,701.359,242.322,702.54" style="opacity: 1;"></path>
	<path class="st0" d="M171.826,673.197l-14.74,13.703c-1.272,1.178-1.272,3.098,0,4.28c1.272,1.181,3.336,1.181,4.606,0
		l14.741-13.701c1.272-1.183,1.272-3.1,0-4.282C175.162,672.015,173.101,672.015,171.826,673.197" style="opacity: 1;"></path>
	<path class="st0" d="M121.465,673.197l-44.797,41.635c-1.27,1.183-1.27,3.1,0,4.283c1.274,1.18,3.336,1.18,4.608,0l44.795-41.635
		c1.272-1.183,1.272-3.1,0-4.282C124.796,672.015,122.735,672.015,121.465,673.197" style="opacity: 1;"></path>
	<path class="st0" d="M140.389,702.54l-13.223,12.292c-1.274,1.183-1.274,3.1,0,4.283c1.272,1.18,3.334,1.18,4.606,0l13.224-12.293
		c1.272-1.181,1.272-3.098,0-4.282C143.723,701.359,141.659,701.359,140.389,702.54" style="opacity: 1;"></path>
	<path class="st0" d="M69.894,673.197L55.155,686.9c-1.274,1.178-1.274,3.098,0,4.28c1.27,1.181,3.334,1.181,4.606,0l14.741-13.701
		c1.273-1.183,1.273-3.1,0-4.282C73.228,672.015,71.166,672.015,69.894,673.197" style="opacity: 1;"></path>
</g>
</svg>
