<svg xmlns="http://www.w3.org/2000/svg" viewBox="0 0 116.71 128"><g id="レイヤー_2" data-name="レイヤー 2"><g id="_1" data-name="1"><path d="M20.8,116.21A13.08,13.08,0,0,1,7.7,103.12V38.87H28A10.9,10.9,0,0,0,38.87,28V7.7H80.05A13.07,13.07,0,0,1,93.12,20.8V51.92a37.47,37.47,0,0,1,7,5.51,9.33,9.33,0,0,1,.68.73V20.8A20.79,20.79,0,0,0,80.05,0H35.69L33.41,2.25,2.25,33.41,0,35.69v67.43a20.82,20.82,0,0,0,20.8,20.79H65.16s-7.58-6.53-9.67-7.7Z"/><path d="M47.48,57.43a36.87,36.87,0,0,1,7.62-5.86H21.79v7.35H46.07C46.53,58.43,47,57.93,47.48,57.43Z"/><rect x="48.64" y="31.95" width="29.95" height="7.36"/><path d="M21.79,72.22v7.35h15a36.57,36.57,0,0,1,1.61-7.35Z"/><path d="M21.79,100.23H40.42a37,37,0,0,1-2.71-7.36H21.79Z"/><path d="M114.48,116.18s-9.16-8-11.36-10.2c-3.21-3.2-4.49-4.74-3.36-7.34a27.12,27.12,0,1,0-12.41,12.41c2.6-1.13,4.14.15,7.34,3.37,2.19,2.19,10.2,11.35,10.2,11.35,4.15,4.15,7.35,1.59,9.27-.32S118.63,120.33,114.48,116.18Zm-28-18.38a15.7,15.7,0,1,1,0-22.2A15.7,15.7,0,0,1,86.51,97.8Z"/></g></g></svg>